<?xml version="1.0" encoding="UTF-8"?>
<svg id="Instagram" xmlns="http://www.w3.org/2000/svg" xmlns:xlink="http://www.w3.org/1999/xlink" viewBox="0 0 64 64">
  <defs>
    <style>
      .cls-1 {
        fill: url(#Unbenannter_Verlauf_17);
      }

      .cls-2 {
        fill: url(#Unbenannter_Verlauf_22);
      }

      .cls-3 {
        fill: url(#Unbenannter_Verlauf_22-2);
      }
    </style>
    <linearGradient id="Unbenannter_Verlauf_22" data-name="Unbenannter Verlauf 22" x1="1.54" y1="62.46" x2="62.4" y2="1.6" gradientUnits="userSpaceOnUse">
      <stop offset="0" stop-color="#d60b52"/>
      <stop offset=".51" stop-color="#e6332a"/>
      <stop offset="1" stop-color="#f39200"/>
    </linearGradient>
    <linearGradient id="Unbenannter_Verlauf_22-2" data-name="Unbenannter Verlauf 22" x1="1.48" y1="62.07" x2="61.68" y2="1.87" xlink:href="#Unbenannter_Verlauf_22"/>
    <linearGradient id="Unbenannter_Verlauf_17" data-name="Unbenannter Verlauf 17" x1="2.33" y1="62.85" x2="63.28" y2="1.9" gradientUnits="userSpaceOnUse">
      <stop offset="0" stop-color="#d60b52"/>
      <stop offset=".51" stop-color="#e6332a"/>
      <stop offset="1" stop-color="#f39200"/>
    </linearGradient>
  </defs>
  <path class="cls-2" d="M52,0H12C5.4,0,0,5.4,0,12V52c0,6.6,5.4,12,12,12H52c6.6,0,12-5.4,12-12V12C64,5.4,58.6,0,52,0Zm6.75,50.23c0,4.69-3.83,8.52-8.52,8.52H13.77c-4.69,0-8.52-3.83-8.52-8.52V13.77c0-4.69,3.83-8.52,8.52-8.52H50.23c4.69,0,8.52,3.83,8.52,8.52V50.23Z"/>
  <circle class="cls-3" cx="49.09" cy="14.45" r="3.46"/>
  <path class="cls-1" d="M27.32,41.55c-.93,0-1.87-.04-2.8,.01-.71,.04-.92-.26-.91-.93,.03-1.71,.01-3.43,0-5.14,0-.23,0-.45,0-.68-.02-.6-.35-.98-.89-1.19-.52-.21-.86,.08-1.19,.42-1.11,1.1-2.42,1.22-3.41,.32-1.3-1.18-1.15-3.9,.28-4.92,.76-.54,2.16-.71,3.16,.56,.3,.38,.69,.62,1.19,.38,.48-.23,.84-.56,.86-1.14,0-.23,.01-.45,.01-.68,0-1.71,.02-3.43-.01-5.14-.02-.72,.24-.98,.96-.96,1.81,.04,3.63,0,5.45,.02,.66,0,1.21-.14,1.5-.78,.3-.64-.11-1.03-.52-1.44-1.4-1.43-.87-3.48,1.05-4.03,.77-.22,1.55-.22,2.31,.03,1.87,.62,2.34,2.62,.94,4.01-.78,.78-.78,1.45,0,2,.29,.21,.62,.2,.94,.2,1.84,0,3.68,.03,5.52,0,.68-.01,.94,.21,.93,.91-.04,1.84,0,3.68-.02,5.52-.01,.68,.22,1.2,.82,1.49,.63,.31,1.04-.15,1.43-.54,.65-.65,1.4-1,2.33-.71,.95,.3,1.51,.96,1.71,1.94,.18,.88,.21,1.75-.24,2.58-.83,1.53-2.56,1.81-3.79,.59-.4-.39-.74-.89-1.4-.61-.71,.3-.85,.92-.85,1.63,.01,1.82-.02,3.63,.01,5.45,.01,.67-.24,.88-.89,.87-1.87-.03-3.73,0-5.6-.02-.66,0-1.13,.23-1.4,.81-.29,.61,.09,1.01,.49,1.38,.77,.7,1.06,1.53,.69,2.52-.37,1.01-1.19,1.47-2.19,1.64-.62,.11-1.26,.05-1.87-.14-1.76-.55-2.28-2.59-1-3.92,.84-.87,.89-1.45,.19-2.01-.28-.22-.59-.27-.92-.27-.96,0-1.92,0-2.87,0Z"/>
</svg>